# xmcd CD database file
#
# Track frame offsets:
#	150
#	17738
#	37786
#	53481
#	79148
#	95002
#	108574
#	134437
#	146075
#	158734
#	178242
#	196606
#	214805
#
# Disc length: 3097 seconds
#
# Revision: 3
# Processed by: cddbd v1.5.2PL0 Copyright (c) Steve Scherf et al.
# Submitted via: CDex 1.70beta2
#
DISCID=ad0c170d
DTITLE=雪莉 (Shirely) - Rouge Shirley 紅
DYEAR=2002
DGENRE=Jazz
TTITLE0=夜色
TTITLE1=給我一個吻 
TTITLE2=梅蘭梅蘭我愛你
TTITLE3=仲夏夜
TTITLE4=我的心裡只有你沒有他
TTITLE5=南屏晚鐘 
TTITLE6=橄欖樹  
TTITLE7=愛 
TTITLE8=魂縈舊夢 
TTITLE9=情人的眼淚 
TTITLE10=月亮代表我的心 
TTITLE11=When You Tell Me That You Love Me
TTITLE12=A Drunken Man's Tango
EXTD=YEAR: 2002
EXTT0=
EXTT1=
EXTT2=
EXTT3=
EXTT4=
EXTT5=
EXTT6=
EXTT7=
EXTT8=
EXTT9=
EXTT10=
EXTT11=
EXTT12=
PLAYORDER=
